<?xml version="1.0" standalone="no"?>
<!DOCTYPE svg PUBLIC "-//W3C//DTD SVG 20010904//EN"
 "http://www.w3.org/TR/2001/REC-SVG-20010904/DTD/svg10.dtd">
<svg version="1.0" xmlns="http://www.w3.org/2000/svg"
 width="300.000000pt" height="300.000000pt" viewBox="0 0 300.000000 300.000000"
 preserveAspectRatio="xMidYMid meet">
<metadata>
Created by potrace 1.10, written by Peter Selinger 2001-2011
</metadata>
<g transform="translate(0.000000,300.000000) scale(0.100000,-0.100000)"
fill="#000000" stroke="none">
<path d="M1420 2907 c-3 -2 -34 -7 -70 -10 -57 -5 -114 -15 -185 -31 -106 -24
-326 -117 -410 -174 -324 -217 -529 -500 -621 -857 -46 -178 -52 -411 -15
-600 39 -200 136 -416 265 -588 13 -18 22 -39 21 -48 -5 -30 -29 -373 -29
-412 0 -50 39 -91 86 -90 35 0 47 3 118 26 25 8 86 27 135 42 50 15 109 33
133 41 57 19 63 18 130 -10 101 -43 255 -81 372 -94 535 -57 1055 199 1347
663 102 161 180 389 201 585 62 575 -246 1141 -761 1401 -137 69 -268 114
-397 134 -25 4 -54 9 -65 11 -35 7 -250 17 -255 11z m275 -41 c69 -9 236 -54
309 -83 225 -92 437 -253 588 -448 71 -90 141 -215 181 -318 49 -129 50 -130
54 -152 2 -11 7 -31 12 -45 32 -86 45 -388 22 -530 -21 -136 -60 -256 -120
-380 -43 -86 -114 -207 -130 -220 -3 -3 -19 -23 -36 -45 -144 -195 -395 -370
-651 -453 -157 -52 -258 -67 -434 -66 -195 1 -320 25 -512 97 l-67 26 -73 -20
c-40 -11 -98 -29 -129 -39 -30 -11 -63 -20 -72 -20 -10 0 -25 -4 -35 -9 -37
-20 -132 -42 -152 -36 -11 4 -27 17 -36 30 -13 20 -13 46 1 238 8 118 12 223
9 233 -4 11 -22 39 -39 64 -119 166 -227 422 -249 590 -3 19 -7 56 -11 82 -26
199 20 489 108 683 78 173 162 293 302 431 92 91 238 204 264 204 5 0 11 4 13
9 4 13 153 86 223 110 81 27 207 59 280 70 62 10 292 8 380 -3z"/>
<path d="M758 2206 c-21 -7 -38 -12 -38 -10 0 7 -54 -30 -88 -60 -107 -97
-117 -296 -20 -407 63 -71 134 -101 234 -100 72 0 129 21 183 67 35 29 91 109
91 128 0 6 -14 -12 -30 -41 -50 -88 -143 -142 -242 -143 -245 -1 -376 287
-213 468 136 151 368 119 464 -63 25 -47 29 -33 5 15 -24 47 -83 103 -138 129
-59 29 -156 37 -208 17z"/>
<path d="M2046 2204 c-53 -19 -121 -77 -150 -127 -91 -158 -30 -355 134 -430
33 -16 66 -21 125 -21 70 0 87 3 134 29 112 61 169 165 159 290 -14 164 -137
276 -301 274 -34 0 -80 -7 -101 -15z m227 -27 c66 -27 133 -103 153 -175 40
-135 -19 -267 -148 -331 -255 -128 -514 169 -355 406 42 62 103 104 174 118
68 14 110 10 176 -18z"/>
<path d="M1369 1723 c-31 -16 -72 -45 -92 -67 -37 -39 -77 -128 -77 -171 0
-14 -3 -25 -6 -25 -4 0 -32 28 -64 63 -57 62 -58 62 -111 61 -30 -1 -91 -5
-135 -9 -64 -6 -97 -4 -151 9 -52 13 -75 15 -96 7 -56 -22 -105 -72 -144 -149
-37 -72 -38 -79 -42 -192 l-3 -117 30 -34 30 -34 312 -3 c189 -2 309 1 306 6
-3 5 -25 10 -48 10 -24 0 -158 1 -299 1 l-256 1 -28 27 c-27 28 -27 28 -23
143 3 92 8 125 26 164 30 66 87 134 128 154 31 14 40 14 106 -1 91 -21 143
-22 222 0 73 19 103 14 150 -28 75 -65 115 -172 118 -313 2 -77 2 -81 5 -26 2
36 5 70 8 76 2 7 25 -8 51 -33 80 -77 173 -103 279 -78 60 13 87 29 145 81 43
39 47 36 49 -46 2 -59 27 -115 58 -129 27 -13 584 -16 642 -5 33 7 80 54 82
82 1 9 0 58 0 107 -2 120 -29 197 -93 270 -62 69 -98 81 -182 59 -66 -17 -148
-15 -238 6 -51 13 -61 12 -93 -3 -19 -9 -56 -39 -81 -67 -26 -27 -50 -47 -54
-45 -4 3 -11 21 -15 42 -16 84 -75 163 -155 203 -33 17 -66 24 -125 27 -71 3
-86 0 -136 -24z m246 -12 c100 -44 156 -125 163 -235 6 -99 -21 -169 -90 -230
-115 -104 -275 -101 -383 7 -90 90 -110 208 -56 323 38 81 106 133 206 158 33
8 117 -4 160 -23z m439 -146 c64 -20 142 -19 215 1 33 10 70 14 85 10 43 -11
104 -74 138 -144 31 -62 33 -75 36 -184 4 -117 4 -118 -24 -143 l-27 -25 -319
0 -320 0 -30 30 -30 31 4 107 c3 90 8 116 31 165 32 71 57 104 104 140 41 31
67 33 137 12z"/>
<path d="M1275 1116 c-16 -7 -39 -22 -51 -32 -28 -26 -80 -103 -89 -134 -4
-14 -12 -31 -18 -39 -17 -20 -15 -231 1 -263 30 -55 45 -58 349 -58 153 1 298
5 322 9 25 5 54 20 70 35 23 24 26 36 29 109 2 45 0 97 -5 115 -6 23 -8 -2 -8
-84 0 -114 0 -116 -28 -140 l-28 -24 -315 0 c-197 0 -323 4 -335 10 -39 21
-52 67 -46 165 7 125 34 193 107 268 65 66 51 64 207 36 63 -11 83 -10 151 4
42 9 88 17 100 17 35 0 118 -84 153 -154 30 -60 31 -42 2 22 -25 52 -101 131
-136 140 -20 5 -55 4 -92 -4 -80 -18 -149 -17 -218 1 -70 18 -83 18 -122 1z"/>
</g>
</svg>
